PathFileType	4	(X/Y/Z)	0_coords_data.trc
DataRate	CameraRate	NumFrames	NumMarkers	Units	OrigDataRate	OrigDataStartFrame	OrigNumFrames
30.0	30.0	9	21	m	30.0	59	78
Frame#	Time	THUMB_TIP	THUMB_IP	THUMB_MCP	THUMB_CMC	INDEX_TIP	INDEX_DIP	INDEX_PIP	INDEX_MCP	MIDDLE_TIP	MIDDLE_DIP	MIDDLE_PIP	MIDDLE_MCP	RING_TIP	RING_DIP	RING_PIP	RING_MCP	PINKY_TIP	PINKY_DIP	PINKY_PIP	PINKY_MCP	WRIST
X1	Y1	Z1	X2	Y2	Z2	X3	Y3	Z3	X4	Y4	Z4	X5	Y5	Z5	X6	Y6	Z6	X7	Y7	Z7	X8	Y8	Z8	X9	Y9	Z9	X10	Y10	Z10	X11	Y11	Z11	X12	Y12	Z12	X13	Y13	Z13	X14	Y14	Z14	X15	Y15	Z15	X16	Y16	Z16	X17	Y17	Z17	X18	Y18	Z18	X19	Y19	Z19	X20	Y20	Z20	X21	Y21	Z21
57	1.9333333333333247	0.461983592603876	-0.02314410789758603	-0.1731123436346067	0.46708280648761025	-0.026946995619064218	-0.15103212482351336	0.4553015864998914	-0.028848387445435386	-0.12228481947634062	0.4666878731756785	-0.030816605757221227	-0.07919922336332452	0.5376297132292309	0.021020586116838436	-0.1947042024973923	0.5260380727066882	0.01793698781476949	-0.18113492501081901	0.510466696196434	0.012804815161036931	-0.16207704290319258	0.48543324020661804	0.003953523551791904	-0.12878114507697302	0.568121961669453	0.030052667732921257	-0.1760769442308836	0.5553092197345996	0.024028645852346764	-0.1647833706382067	0.534237740827534	0.016569995484731814	-0.14608120869465652	0.5030081376717729	0.008658728978316876	-0.11512524529504398	0.5831367206781441	0.028801120024564142	-0.148134466274555	0.5692024345375586	0.024526515563236373	-0.13752487502646804	0.5494024330431859	0.019716429988197004	-0.12320694931833431	0.518504629674829	0.005202533230035611	-0.10154146105003542	0.5901169487429035	0.010528419635822739	-0.11457091974088135	0.5758131988971315	0.011185224139817262	-0.10519161549199862	0.5573811281876322	0.010831624273913376	-0.0951444389983338	0.525787975276488	-0.0018479043710820653	-0.08322866401414553	0.4622830810018609	-0.023011742144276925	-0.051989820119430985
58	1.966666666666658	0.45882461992762424	-0.022774717986735027	-0.17294987759523806	0.46503191478871664	-0.02693958033549604	-0.151221476546764	0.4542560172148531	-0.028812507618538596	-0.12208057445245613	0.4664099818461661	-0.030923258350038285	-0.07921198600951496	0.5363993570209304	0.020024629537916838	-0.1958729176781182	0.5250129490484834	0.016885480319551838	-0.18214355295611329	0.5097458819346835	0.01166040202340246	-0.16286597397062236	0.48513929038013137	0.0029135810520826144	-0.12922604428931755	0.5673475198839281	0.029676366365670726	-0.1770776371959737	0.5546649482431508	0.023522925550327534	-0.1657071691885159	0.5337664607308612	0.015878328615765547	-0.14688635870100597	0.5027911692134612	0.007657262696335487	-0.11575609510494117	0.5823685139239743	0.029327208827294893	-0.14899651005091313	0.5685902217412455	0.02456474047145596	-0.13839096623237218	0.5489542253966487	0.01918316266316189	-0.12405059500815818	0.5182782119484547	0.004470131561449153	-0.10220500623773948	0.590019836464676	0.011451691500059757	-0.11480897265066953	0.5755964415327756	0.011575749541624769	-0.10559212458635014	0.5571050878336227	0.010765824938985258	-0.09568122757796271	0.5255905587238616	-0.002185973128370433	-0.08385038513913062	0.4622830810018609	-0.023011742144276925	-0.051989820119430985
59	1.9999999999999911	0.4563891506769948	-0.022324826389274355	-0.17271541975810695	0.4634490046047862	-0.02683874387134766	-0.15131955540344066	0.45344347014430997	-0.02874595426056048	-0.12190745196469466	0.4661964387910521	-0.031001596069659132	-0.07922064052691846	0.5355197801871671	0.019124637128690947	-0.19670946640780618	0.5242708399269216	0.015968212208570143	-0.18287117443426165	0.5092045475963577	0.010742104093322768	-0.16343655423273107	0.48487719161209986	0.0021565186871812525	-0.12955287721784603	0.5667994443020061	0.029256982479851312	-0.1778210677281683	0.5541978841497781	0.02304486510783199	-0.16639258228669218	0.5334183504447898	0.015315438521133706	-0.1474749583966764	0.5026218979698569	0.006910016941260699	-0.11621675428921352	0.5818027693418475	0.029481047297743257	-0.1497017120584978	0.5681413076055858	0.024422322238781047	-0.13908221282329453	0.5486208180754153	0.018712091379619045	-0.12471127927541442	0.5180933343520544	0.003957066633435535	-0.10268668356381411	0.589910729910916	0.011925006060677479	-0.11508823454130668	0.5754277066805512	0.011708403493160602	-0.1059670985683886	0.5569153086830174	0.010652479835973838	-0.09611884163575823	0.5254386793008877	-0.002378919172392413	-0.08427452259138907	0.462283081001861	-0.023011742144276925	-0.051989820119430985
60	2.0333333333333243	0.45454466541605987	-0.021931278684277133	-0.17247946624926963	0.4622265190930349	-0.026724366025982826	-0.15136038866950008	0.45283131397111587	-0.028696620635052628	-0.12175193831366288	0.46606624846602995	-0.0310710942267306	-0.07921855866805094	0.5349628709439676	0.018199767167220493	-0.19730318180133327	0.5237868477464948	0.015096521258110673	-0.18339396290460352	0.5088448081224634	0.009934128426704714	-0.16384671283897723	0.4846662698256867	0.0015731543286806593	-0.12980073668960718	0.5664286742410832	0.028762811915508002	-0.17839136411266343	0.5538775210410112	0.022551930756846028	-0.16690687419881445	0.5331711344147722	0.014819120505780714	-0.1479105917070812	0.5024865390110603	0.006347051435329765	-0.11656051082080565	0.5813751292980052	0.029406345380099452	-0.15030923086479253	0.5677972020276487	0.02419073504624869	-0.13965853605711265	0.5483642648693078	0.018316756724396033	-0.12523503748449233	0.5179399094745435	0.003599904149926614	-0.10304283878507509	0.5897772601242376	0.012174389581880107	-0.1153670467584681	0.5752702804841153	0.011785830692895294	-0.10628979146235212	0.556756090911639	0.010609381993169409	-0.09645857729871365	0.5253116032089213	-0.0024650712680207576	-0.08457639248132431	0.462283081001861	-0.023011742144276925	-0.051989820119430985
61	2.0666666666666575	0.45329980136973913	-0.021740765124743655	-0.17229428429724697	0.46141663664718413	-0.026718221155912936	-0.15138156289288163	0.45243950722949755	-0.028726676761546388	-0.12164610840672474	0.46597338932839516	-0.031144840312853694	-0.07920937290112451	0.5346425151497308	0.017206708128114534	-0.19772539312281218	0.5234941730360486	0.014213034290045501	-0.18377002193220743	0.5085936479751293	0.009218240739676031	-0.1641476820284623	0.4844741306702418	0.0011321831228241486	-0.12999360977937052	0.566173414631621	0.02816975158930024	-0.17886730910708315	0.5536485051929737	0.022001499697236304	-0.16733130840711208	0.5329850536048019	0.01434257985224452	-0.148258493584143	0.5023694442274491	0.005907576819247695	-0.11683106754753136	0.5810437227946308	0.029172628214770957	-0.1508577724293843	0.5675264630213888	0.023885469526428116	-0.14016526845571325	0.5481506074972887	0.01796759540053039	-0.12568303908523176	0.5178223006164776	0.003312459688567304	-0.10331919252415711	0.5896570955459116	0.01223703416087596	-0.11562880598077868	0.5751440331617029	0.01176708091204881	-0.10656513320557415	0.5566311725115834	0.01056159667260248	-0.09673493395542149	0.5252172423005836	-0.0025467263224155934	-0.08480931833371375	0.4622830810018608	-0.023011742144276925	-0.051989820119430985
62	2.0999999999999908	0.45222147393427736	-0.021519448482985926	-0.17212678749695765	0.4606708970558293	-0.026641400070874788	-0.1513813576184444	0.4520543625326615	-0.028700471110251757	-0.12154286638202544	0.4658821283116833	-0.031198194045651606	-0.07920559824036921	0.53430738844963	0.01641152298389925	-0.19809703732435968	0.5231812457864712	0.013530729681199616	-0.18410025271552333	0.508324333686475	0.008677715254623908	-0.16440938562368512	0.4842886703130357	0.0008057408692718759	-0.13014635891157056	0.5658644924793651	0.02771970671401791	-0.17932023249370144	0.5533753512072217	0.021580377964039332	-0.16773015083807313	0.5327681448445354	0.013976880858571628	-0.14857448776699123	0.5022340122053365	0.005590445874403938	-0.11705493235724374	0.5807175831363408	0.028966014446855315	-0.15137735589088047	0.5672549503320063	0.023627467596946117	-0.14064155431358866	0.5479366074409414	0.017671708677524545	-0.12609815228253096	0.5177036224896857	0.0030718675308286647	-0.10356967933320754	0.589531616511925	0.012305386516100247	-0.11590490581324736	0.5750118502133391	0.011743838715986388	-0.10685719611948313	0.5565054782864803	0.010503164328293235	-0.09701916053464732	0.5251230415195703	-0.0026357019953068272	-0.08504434089920127	0.4622830810018608	-0.023011742144276925	-0.051989820119430985
63	2.133333333333324	0.4514996653434774	-0.021255816107558334	-0.17199938092486305	0.4601811407018098	-0.02650948242676665	-0.15138310153674162	0.45181668940194575	-0.028650694987882197	-0.12147873457771158	0.4658237855665901	-0.031225337219493166	-0.07920507286721373	0.5340669987976099	0.01579924066717575	-0.1983518821698892	0.5229520604872064	0.01302332488758784	-0.18432503512785725	0.5081237472433613	0.008314239842837079	-0.16457774474705528	0.4841301566444224	0.000648269958904546	-0.13023860367001105	0.565597175232232	0.027355881399923287	-0.179696325118277	0.5531337619781848	0.021260094107736882	-0.16805567619533207	0.532574339147394	0.013730503507599523	-0.1488196436454769	0.5021242609632536	0.005408160414829721	-0.11720193871570755	0.5804716045924765	0.028758076823137912	-0.1517926656961731	0.5670504119383968	0.023408350840275594	-0.14101064271111302	0.5477724259757193	0.017456217938519702	-0.12641230889719285	0.5176104673422083	0.00293387720390359	-0.10373900510224299	0.5894352343111082	0.012326706106536967	-0.11610566229105812	0.5749137200796801	0.011722521114386208	-0.10706350630248501	0.556413031423977	0.01047317791831004	-0.09721588324698771	0.5250523022988242	-0.002691688472215459	-0.08521278312000374	0.462283081001861	-0.023011742144276925	-0.051989820119430985
64	2.1666666666666576	0.45112295457444107	-0.02107177823179307	-0.17193505902881745	0.45993834866899264	-0.026400999928257618	-0.1513951412327872	0.4517165345041124	-0.028612955172954257	-0.12145638665225023	0.4657884559721014	-0.03123377408560879	-0.07920709867687914	0.5340336052302542	0.015218556950648443	-0.19845282110015522	0.5228947022284217	0.012573451753559839	-0.1844197081735055	0.5080548800584779	0.008018126483248622	-0.16464501417723576	0.48401195439089384	0.0006015341573905042	-0.1302856198633796	0.5655113178235083	0.026875645946227156	-0.17993169289986127	0.553045002558691	0.020863990449538794	-0.1682504694233874	0.5324842105645283	0.013488931122649817	-0.14895612096334226	0.5020505512520255	0.005334682641959132	-0.11727886518627634	0.580397985846654	0.028366490035346192	-0.15207843157027007	0.5669830823832426	0.02309412918254561	-0.14125057046545297	0.5477075897028412	0.017258980827015713	-0.12660180244227937	0.5175506468931239	0.0028863490070564213	-0.10382666053406414	0.5893909143642919	0.012145494508953636	-0.11625603335540369	0.5748751518954442	0.011580269370024432	-0.10720213030255898	0.556386002915226	0.010399762926624034	-0.09732438797324161	0.5250109008845296	-0.0027172548357168314	-0.08530647348753134	0.4622830810018609	-0.023011742144276925	-0.051989820119430985
65	2.1999999999999904	0.4509445169141425	-0.020882033920747056	-0.17189207429044806	0.4598212187218754	-0.026265449323055856	-0.1513927327492478	0.4516581699555563	-0.02854858863826759	-0.12144324344298357	0.46576653290517744	-0.031233116510921644	-0.07921011184014481	0.5341176540766671	0.014785739881096771	-0.19843577190746386	0.5229365034496273	0.012250059844727823	-0.18441606444230585	0.508059219481763	0.00784646886761553	-0.16463514835518223	0.48391956225198074	0.0006478235594072901	-0.13029723128738036	0.565539723718012	0.026438997856090718	-0.18003425799931194	0.5530490138753336	0.020525772250708063	-0.16832887758832749	0.5324617395617655	0.013313386885165701	-0.1490013018563116	0.5020083714226403	0.005368753154642358	-0.11728974111151769	0.5804645094366764	0.027985563242281297	-0.1521836635875709	0.5670327560062162	0.02281252927183497	-0.14132881585377355	0.5477377993291722	0.017102541121197135	-0.12665637021064452	0.5175299273602758	0.002901047905630394	-0.10384139934590347	0.5894258602855079	0.01189018837740241	-0.11623965697696137	0.5749092748407191	0.011415626130333534	-0.10718186819062925	0.5564183064276413	0.010341782857672843	-0.09729536391599702	0.5250068795436518	-0.0027272355898400047	-0.08532011991304023	0.462283081001861	-0.023011742144276925	-0.051989820119430985
